<svg xmlns="http://www.w3.org/2000/svg" xmlns:xlink="http://www.w3.org/1999/xlink" version="1.1" id="Layer_1" x="0px" y="0px" viewBox="0 0 512 512" style="enable-background:new 0 0 512 512;" xml:space="preserve">
            <style type="text/css">
              .st0{fill: #202020;}
              .st1{fill:none;stroke:#fff;stroke-width:5;stroke-miterlimit:10;}
              .st2{fill:none;stroke:#fff;stroke-miterlimit:10;}
              .st3{fill:#202020;stroke:#cccccc;stroke-miterlimit:10;}
              .st4{fill:#202020;stroke:#fff;stroke-miterlimit:10;}
              .st5{fill:none;stroke:#cccccc;stroke-width:0.5;stroke-miterlimit:10;}
              .st6{fill:#202020;stroke:#cccccc;stroke-miterlimit:10;}
              .st7{fill:#202020;stroke:#cccccc;stroke-miterlimit:10;}
              .st8{fill:#202020;stroke:#cccccc;stroke-miterlimit:10;}
            </style>
            <rect x="50.5" y="49.5" class="st1" width="413" height="413"/>
            <rect x="42" y="132" class="st0" width="16" height="60"/>
            <rect x="456" y="256" class="st0" width="16" height="49"/>
            <rect x="229" y="51" class="st2" width="235" height="190.5"/>
            <rect x="366.8" y="337" class="st2" width="97.7" height="122.5"/>
            <rect x="269.1" y="337" class="st2" width="97.7" height="122.5"/>
            <rect x="171.1" y="337" class="st2" width="97.7" height="122.5"/>
            <rect x="221" y="170" class="st0" width="16" height="49"/>
            <rect x="212.5" y="315.5" transform="matrix(-1.836970e-16 1 -1 -1.836970e-16 560.5 119.5)" class="st0" width="16" height="49"/>
            <rect x="307.5" y="315.5" transform="matrix(-1.836970e-16 1 -1 -1.836970e-16 655.5 24.5)" class="st0" width="16" height="49"/>
            <rect x="407.5" y="315.5" transform="matrix(-1.836970e-16 1 -1 -1.836970e-16 755.5 -75.5)" class="st0" width="16" height="49"/>
            <g>
              <path class="st3" d="M71.6,255.1c-4.2-7.1-2.2-12.1,5.8-14c9.3-2.3,13.2,2,11.6,11.3c-0.7,4-2.2,5.2-6.2,5.6   c-4.2,0.5-7.9-0.8-11.3-3C71.5,255,71.6,255.1,71.6,255.1z"/>
              <path class="st3" d="M71.6,255.1c0,0-0.1-0.1-0.1-0.1c0,0.6,0.1,1.7-0.1,1.8c-2.6,1.2-5.2,2.7-8,3.2c-2.7,0.5-5.1-1.3-5.3-4.1   c-0.4-4.3-0.5-8.7,0-13c0.4-3.6,3.8-5.2,7.3-4c2.2,0.8,4.4,2,6.6,3c-0.6,1.8-1.7,2.2-3.2,1.4c-1-0.5-2-1-3-1.4   c-2.8-1.2-3.5-0.8-4.6,2.5c2.7,0.7,5.4,1.3,8.1,2c0,0.4-0.1,0.8-0.1,1.2c-2.8-0.2-5.6-0.3-8.6-0.5c0,1.5,0,2.7,0,4.4   c2.9-0.2,5.8-0.3,8.6-0.5c0,0.4,0.1,0.8,0.1,1.2c-2.6,0.6-5.3,1.3-7.9,1.9c0.6,3.2,1.4,3.6,4.1,2.7   C67.5,256.2,69.6,255.7,71.6,255.1z"/>
            </g>
            <g>
              <path class="st3" d="M71.6,225.1c-4.2-7.1-2.2-12.1,5.8-14c9.3-2.3,13.2,2,11.6,11.3c-0.7,4-2.2,5.2-6.2,5.6   c-4.2,0.5-7.9-0.8-11.3-3C71.5,225,71.6,225.1,71.6,225.1z"/>
              <path class="st3" d="M71.6,225.1c0,0-0.1-0.1-0.1-0.1c0,0.6,0.1,1.7-0.1,1.8c-2.6,1.2-5.2,2.7-8,3.2c-2.7,0.5-5.1-1.3-5.3-4.1   c-0.4-4.3-0.5-8.7,0-13c0.4-3.6,3.8-5.2,7.3-4c2.2,0.8,4.4,2,6.6,3c-0.6,1.8-1.7,2.2-3.2,1.4c-1-0.5-2-1-3-1.4   c-2.8-1.2-3.5-0.8-4.6,2.5c2.7,0.7,5.4,1.3,8.1,2c0,0.4-0.1,0.8-0.1,1.2c-2.8-0.2-5.6-0.3-8.6-0.5c0,1.5,0,2.7,0,4.4   c2.9-0.2,5.8-0.3,8.6-0.5c0,0.4,0.1,0.8,0.1,1.2c-2.6,0.6-5.3,1.3-7.9,1.9c0.6,3.2,1.4,3.6,4.1,2.7   C67.5,226.2,69.6,225.7,71.6,225.1z"/>
            </g>
            <g>
              <path class="st3" d="M396.8,183.2c-0.9,1.3-1.8,2.5-3,4.3c0.1,0.4,0.6,1.6,1,2.7c0.1,0.3,0.2,0.6,0.3,0.9c-2.1,1-4.3,2-6.4,3.1   c-1-1.6-1.6-2.6-2.1-3.5c-1.7-0.8-3.2,2.5-4.8,0c-0.8-1.1-1.6-2.2-2.3-3.4c-0.9-1.6-1.8-3.3-2.9-4.9c-1.3-2.1-1.5-4,1-5.3   c3.5-1.8,7.1-3.6,10.7-5.3c2.4-1.2,3.7,0.1,4.6,2.3c0.6,1.5,1.3,3,2,4.6C395.5,180.2,396.2,181.7,396.8,183.2z"/>
              <path class="st3" d="M386.3,196.4c3.9-2.1,7.9-4.1,11.8-6.2l-0.1,0.1c2.4-1.5,4.4-0.7,6.4,1c1.6,1.4,1.3,2.5-0.2,3.3   c-6,3.1-12.1,6.2-18.2,9.1c-1.7,0.8-2.7,0.2-2.7-2.1c0.1-2.4,0-4.6,3-5.2C386.4,196.4,386.3,196.4,386.3,196.4z"/>
              <path class="st3" d="M379.5,187.3c0.8,1.1,1.6,2.2,2.3,3.4c0.1,1,0.2,2,0.4,3.2c-3.5-0.7-10-10.2-9.2-14.2   C375.2,182.2,377.3,184.7,379.5,187.3z"/>
              <path class="st3" d="M396.8,183.2c-0.6-1.5-1.3-3-1.9-4.5c-0.6-2.4-1.2-4.9-1.8-7.3c-0.1-0.5,0.1-1.1,0.3-1.6   c0.1-0.1,0.9-0.1,1.2,0.2c1.8,1.4,5,12.7,4.2,15.8C398.1,184.7,397.4,184,396.8,183.2z"/>
              <path class="st3" d="M386.3,196.4c0,0,0.1-0.1,0.1-0.1c-0.8-0.1-1.5-0.2-2.3-0.3c-0.2-1.7-1.5-3.7,1.9-4.3   C386.1,193.4,386.2,194.9,386.3,196.4z"/>
              <path class="st3" d="M398.1,190.3c-1.1-0.9-2.2-1.8-3.4-2.8c2.3-1.5,2.3-1.5,4.6,1.1c-0.4,0.6-0.9,1.2-1.3,1.8   C398,190.3,398.1,190.3,398.1,190.3z"/>
            </g>
            <g>
              <path class="st3" d="M324,199.8c-1.5-0.2-3.1-0.3-5.3-0.6c-0.3,0.3-1.1,1.3-1.9,2.2c-0.2,0.2-0.4,0.5-0.6,0.7   c-1.9-1.4-3.8-2.8-5.8-4.2c1-1.6,1.6-2.6,2.1-3.5c-0.1-1.9-3.8-1.6-2.3-4.2c0.6-1.2,1.2-2.4,1.8-3.7c1-1.6,2-3.2,2.9-4.8   c1.2-2.2,2.7-3.2,5.1-1.7c3.3,2.2,6.6,4.5,9.8,6.8c2.2,1.6,1.7,3.3,0.2,5.1c-1.1,1.3-2,2.6-3,4C326,197.2,325,198.5,324,199.8z"/>
              <path class="st3" d="M307.3,197c3.7,2.5,7.4,4.9,11.1,7.4l-0.1-0.1c2.5,1.4,2.7,3.5,2.2,6.1c-0.4,2.1-1.6,2.3-2.9,1.4   c-5.6-3.8-11.2-7.6-16.7-11.6c-1.5-1.1-1.4-2.3,0.6-3.3c2.2-1.1,4.1-2.2,6,0.2C307.4,197,307.3,197,307.3,197z"/>
              <path class="st3" d="M312,186.6c-0.6,1.2-1.2,2.5-1.8,3.7c-0.8,0.6-1.7,1.2-2.6,1.8c-1-3.4,4.1-13.7,8.1-14.9   C314.5,180.3,313.3,183.4,312,186.6z"/>
              <path class="st3" d="M324,199.8c1-1.3,2-2.6,3.1-3.9c1.8-1.7,3.7-3.4,5.5-5.1c0.4-0.3,1-0.5,1.6-0.5c0.2,0,0.5,0.8,0.5,1.2   c-0.4,2.3-8.7,10.5-11.8,11.3C323.3,201.6,323.6,200.7,324,199.8z"/>
              <path class="st3" d="M307.3,197c0,0,0.1,0.1,0.1,0.1c-0.3-0.7-0.5-1.4-0.8-2.2c1.3-1,2.5-3.1,4.7-0.4   C309.9,195.3,308.6,196.1,307.3,197z"/>
              <path class="st3" d="M318.4,204.3c0.3-1.4,0.6-2.8,0.8-4.3c2.5,1.3,2.5,1.3,1.2,4.6c-0.7-0.1-1.5-0.2-2.2-0.3   C318.3,204.3,318.4,204.3,318.4,204.3z"/>
            </g>
            <g>
              <path class="st3" d="M228.6,414c-1.4,0.7-2.7,1.5-4.7,2.5c0,0.4-0.2,1.7-0.3,2.9c0,0.3-0.1,0.6-0.1,0.9c-2.4-0.1-4.7-0.1-7.1-0.2   c-0.1-1.9-0.2-3.1-0.3-4.1c-1.1-1.5-4,0.8-4.2-2.2c-0.2-1.3-0.4-2.7-0.6-4.1c-0.1-1.9-0.2-3.8-0.4-5.6c-0.3-2.5,0.4-4.2,3.2-4.3   c4-0.1,8,0,11.9,0c2.7,0,3.3,1.8,3.1,4.1c-0.1,1.7-0.2,3.3-0.2,5C228.8,410.7,228.7,412.4,228.6,414z"/>
              <path class="st3" d="M213.3,421.1c4.4-0.1,8.9-0.1,13.3-0.2l-0.1,0c2.8-0.3,4.2,1.3,5.3,3.8c0.8,2,0.1,2.8-1.6,2.8   c-6.8,0.1-13.5,0.1-20.3,0c-1.9,0-2.5-1.1-1.4-3.1c1.2-2.1,2.1-4.1,5.1-3.3C213.4,421.1,213.3,421.1,213.3,421.1z"/>
              <path class="st3" d="M211.3,409.9c0.2,1.4,0.4,2.7,0.6,4.1c-0.4,1-0.7,1.9-1.1,3c-2.8-2.2-4.4-13.6-1.8-16.8   C209.7,403.4,210.5,406.7,211.3,409.9z"/>
              <path class="st3" d="M228.6,414c0.1-1.6,0.2-3.3,0.3-4.9c0.6-2.4,1.1-4.9,1.7-7.3c0.1-0.5,0.6-1,1-1.3c0.1-0.1,0.9,0.4,1,0.7   c1,2.1-1.2,13.6-3.3,16C229,415.9,228.8,415,228.6,414z"/>
              <path class="st3" d="M213.3,421.1c0,0,0.1,0,0.1,0c-0.6-0.4-1.3-0.9-1.9-1.3c0.5-1.6,0.3-4,3.6-3   C214.5,418.3,213.9,419.7,213.3,421.1z"/>
              <path class="st3" d="M226.6,420.9c-0.6-1.3-1.2-2.6-1.8-4.1c2.8-0.3,2.8-0.3,3.6,3c-0.6,0.3-1.3,0.7-2,1   C226.5,420.9,226.6,420.9,226.6,420.9z"/>
            </g>
            <g>
              <path class="st3" d="M322.6,414c-1.4,0.7-2.7,1.5-4.7,2.5c0,0.4-0.2,1.7-0.3,2.9c0,0.3-0.1,0.6-0.1,0.9c-2.4-0.1-4.7-0.1-7.1-0.2   c-0.1-1.9-0.2-3.1-0.3-4.1c-1.1-1.5-4,0.8-4.2-2.2c-0.2-1.3-0.4-2.7-0.6-4.1c-0.1-1.9-0.2-3.8-0.4-5.6c-0.3-2.5,0.4-4.2,3.2-4.3   c4-0.1,8,0,11.9,0c2.7,0,3.3,1.8,3.1,4.1c-0.1,1.7-0.2,3.3-0.2,5C322.8,410.7,322.7,412.4,322.6,414z"/>
              <path class="st3" d="M307.3,421.1c4.4-0.1,8.9-0.1,13.3-0.2l-0.1,0c2.8-0.3,4.2,1.3,5.3,3.8c0.8,2,0.1,2.8-1.6,2.8   c-6.8,0.1-13.5,0.1-20.3,0c-1.9,0-2.5-1.1-1.4-3.1c1.2-2.1,2.1-4.1,5.1-3.3C307.4,421.1,307.3,421.1,307.3,421.1z"/>
              <path class="st3" d="M305.3,409.9c0.2,1.4,0.4,2.7,0.6,4.1c-0.4,1-0.7,1.9-1.1,3c-2.8-2.2-4.4-13.6-1.8-16.8   C303.7,403.4,304.5,406.7,305.3,409.9z"/>
              <path class="st3" d="M322.6,414c0.1-1.6,0.2-3.3,0.3-4.9c0.6-2.4,1.1-4.9,1.7-7.3c0.1-0.5,0.6-1,1-1.3c0.1-0.1,0.9,0.4,1,0.7   c1,2.1-1.2,13.6-3.3,16C323,415.9,322.8,415,322.6,414z"/>
              <path class="st3" d="M307.3,421.1c0,0,0.1,0,0.1,0c-0.6-0.4-1.3-0.9-1.9-1.3c0.5-1.6,0.3-4,3.6-3   C308.5,418.3,307.9,419.7,307.3,421.1z"/>
              <path class="st3" d="M320.6,420.9c-0.6-1.3-1.2-2.6-1.8-4.1c2.8-0.3,2.8-0.3,3.6,3c-0.6,0.3-1.3,0.7-2,1   C320.5,420.9,320.6,420.9,320.6,420.9z"/>
            </g>
            <g>
              <path class="st3" d="M418.6,414c-1.4,0.7-2.7,1.5-4.7,2.5c0,0.4-0.2,1.7-0.3,2.9c0,0.3-0.1,0.6-0.1,0.9c-2.4-0.1-4.7-0.1-7.1-0.2   c-0.1-1.9-0.2-3.1-0.3-4.1c-1.1-1.5-4,0.8-4.2-2.2c-0.2-1.3-0.4-2.7-0.6-4.1c-0.1-1.9-0.2-3.8-0.4-5.6c-0.3-2.5,0.4-4.2,3.2-4.3   c4-0.1,8,0,11.9,0c2.7,0,3.3,1.8,3.1,4.1c-0.1,1.7-0.2,3.3-0.2,5C418.8,410.7,418.7,412.4,418.6,414z"/>
              <path class="st3" d="M403.3,421.1c4.4-0.1,8.9-0.1,13.3-0.2l-0.1,0c2.8-0.3,4.2,1.3,5.3,3.8c0.8,2,0.1,2.8-1.6,2.8   c-6.8,0.1-13.5,0.1-20.3,0c-1.9,0-2.5-1.1-1.4-3.1c1.2-2.1,2.1-4.1,5.1-3.3C403.4,421.1,403.3,421.1,403.3,421.1z"/>
              <path class="st3" d="M401.3,409.9c0.2,1.4,0.4,2.7,0.6,4.1c-0.4,1-0.7,1.9-1.1,3c-2.8-2.2-4.4-13.6-1.8-16.8   C399.7,403.4,400.5,406.7,401.3,409.9z"/>
              <path class="st3" d="M418.6,414c0.1-1.6,0.2-3.3,0.3-4.9c0.6-2.4,1.1-4.9,1.7-7.3c0.1-0.5,0.6-1,1-1.3c0.1-0.1,0.9,0.4,1,0.7   c1,2.1-1.2,13.6-3.3,16C419,415.9,418.8,415,418.6,414z"/>
              <path class="st3" d="M403.3,421.1c0,0,0.1,0,0.1,0c-0.6-0.4-1.3-0.9-1.9-1.3c0.5-1.6,0.3-4,3.6-3   C404.5,418.3,403.9,419.7,403.3,421.1z"/>
              <path class="st3" d="M416.6,420.9c-0.6-1.3-1.2-2.6-1.8-4.1c2.8-0.3,2.8-0.3,3.6,3c-0.6,0.3-1.3,0.7-2,1   C416.5,420.9,416.6,420.9,416.6,420.9z"/>
            </g>
            <g>
              <path class="st3" d="M401.7,371.5c1.4-0.7,2.7-1.5,4.7-2.5c0-0.4,0.2-1.7,0.3-2.9c0-0.3,0.1-0.6,0.1-0.9c2.4,0.1,4.7,0.1,7.1,0.2   c0.1,1.9,0.2,3.1,0.3,4.1c1.1,1.5,4-0.8,4.2,2.2c0.2,1.3,0.4,2.7,0.6,4.1c0.1,1.9,0.2,3.8,0.4,5.6c0.3,2.5-0.4,4.2-3.2,4.3   c-4,0.1-8,0-11.9,0c-2.7,0-3.3-1.8-3.1-4.1c0.1-1.7,0.2-3.3,0.2-5C401.5,374.8,401.6,373.2,401.7,371.5z"/>
              <path class="st3" d="M417,364.4c-4.4,0.1-8.9,0.1-13.3,0.2l0.1,0c-2.8,0.3-4.2-1.3-5.3-3.8c-0.8-2-0.1-2.8,1.6-2.8   c6.8-0.1,13.5-0.1,20.3,0c1.9,0,2.5,1.1,1.4,3.1c-1.2,2.1-2.1,4.1-5.1,3.3L417,364.4z"/>
              <path class="st3" d="M419,375.7c-0.2-1.4-0.4-2.7-0.6-4.1c0.4-1,0.7-1.9,1.1-3c2.8,2.2,4.4,13.6,1.8,16.8   C420.5,382.2,419.8,378.9,419,375.7z"/>
              <path class="st3" d="M401.7,371.5c-0.1,1.6-0.2,3.3-0.3,4.9c-0.6,2.4-1.1,4.9-1.7,7.3c-0.1,0.5-0.6,1-1,1.3c-0.1,0.1-0.9-0.4-1-0.7   c-1-2.1,1.2-13.6,3.3-16C401.2,369.6,401.5,370.6,401.7,371.5z"/>
              <path class="st3" d="M417,364.4l-0.1,0c0.6,0.4,1.3,0.9,1.9,1.3c-0.5,1.6-0.3,4-3.6,3C415.8,367.2,416.4,365.8,417,364.4z"/>
              <path class="st3" d="M403.7,364.6c0.6,1.3,1.2,2.6,1.8,4.1c-2.8,0.3-2.8,0.3-3.6-3c0.6-0.3,1.3-0.7,2-1   C403.8,364.6,403.7,364.6,403.7,364.6z"/>
            </g>
            <g>
              <path class="st3" d="M307.7,371.5c1.4-0.7,2.7-1.5,4.7-2.5c0-0.4,0.2-1.7,0.3-2.9c0-0.3,0.1-0.6,0.1-0.9c2.4,0.1,4.7,0.1,7.1,0.2   c0.1,1.9,0.2,3.1,0.3,4.1c1.1,1.5,4-0.8,4.2,2.2c0.2,1.3,0.4,2.7,0.6,4.1c0.1,1.9,0.2,3.8,0.4,5.6c0.3,2.5-0.4,4.2-3.2,4.3   c-4,0.1-8,0-11.9,0c-2.7,0-3.3-1.8-3.1-4.1c0.1-1.7,0.2-3.3,0.2-5C307.5,374.8,307.6,373.2,307.7,371.5z"/>
              <path class="st3" d="M323,364.4c-4.4,0.1-8.9,0.1-13.3,0.2l0.1,0c-2.8,0.3-4.2-1.3-5.3-3.8c-0.8-2-0.1-2.8,1.6-2.8   c6.8-0.1,13.5-0.1,20.3,0c1.9,0,2.5,1.1,1.4,3.1c-1.2,2.1-2.1,4.1-5.1,3.3L323,364.4z"/>
              <path class="st3" d="M325,375.7c-0.2-1.4-0.4-2.7-0.6-4.1c0.4-1,0.7-1.9,1.1-3c2.8,2.2,4.4,13.6,1.8,16.8   C326.5,382.2,325.8,378.9,325,375.7z"/>
              <path class="st3" d="M307.7,371.5c-0.1,1.6-0.2,3.3-0.3,4.9c-0.6,2.4-1.1,4.9-1.7,7.3c-0.1,0.5-0.6,1-1,1.3c-0.1,0.1-0.9-0.4-1-0.7   c-1-2.1,1.2-13.6,3.3-16C307.2,369.6,307.5,370.6,307.7,371.5z"/>
              <path class="st3" d="M323,364.4l-0.1,0c0.6,0.4,1.3,0.9,1.9,1.3c-0.5,1.6-0.3,4-3.6,3C321.8,367.2,322.4,365.8,323,364.4z"/>
              <path class="st3" d="M309.7,364.6c0.6,1.3,1.2,2.6,1.8,4.1c-2.8,0.3-2.8,0.3-3.6-3c0.6-0.3,1.3-0.7,2-1   C309.8,364.6,309.7,364.6,309.7,364.6z"/>
            </g>
            <g>
              <path class="st3" d="M211.7,371.5c1.4-0.7,2.7-1.5,4.7-2.5c0-0.4,0.2-1.7,0.3-2.9c0-0.3,0.1-0.6,0.1-0.9c2.4,0.1,4.7,0.1,7.1,0.2   c0.1,1.9,0.2,3.1,0.3,4.1c1.1,1.5,4-0.8,4.2,2.2c0.2,1.3,0.4,2.7,0.6,4.1c0.1,1.9,0.2,3.8,0.4,5.6c0.3,2.5-0.4,4.2-3.2,4.3   c-4,0.1-8,0-11.9,0c-2.7,0-3.3-1.8-3.1-4.1c0.1-1.7,0.2-3.3,0.2-5C211.5,374.8,211.6,373.2,211.7,371.5z"/>
              <path class="st3" d="M227,364.4c-4.4,0.1-8.9,0.1-13.3,0.2l0.1,0c-2.8,0.3-4.2-1.3-5.3-3.8c-0.8-2-0.1-2.8,1.6-2.8   c6.8-0.1,13.5-0.1,20.3,0c1.9,0,2.5,1.1,1.4,3.1c-1.2,2.1-2.1,4.1-5.1,3.3L227,364.4z"/>
              <path class="st3" d="M229,375.7c-0.2-1.4-0.4-2.7-0.6-4.1c0.4-1,0.7-1.9,1.1-3c2.8,2.2,4.4,13.6,1.8,16.8   C230.5,382.2,229.8,378.9,229,375.7z"/>
              <path class="st3" d="M211.7,371.5c-0.1,1.6-0.2,3.3-0.3,4.9c-0.6,2.4-1.1,4.9-1.7,7.3c-0.1,0.5-0.6,1-1,1.3c-0.1,0.1-0.9-0.4-1-0.7   c-1-2.1,1.2-13.6,3.3-16C211.2,369.6,211.5,370.6,211.7,371.5z"/>
              <path class="st3" d="M227,364.4l-0.1,0c0.6,0.4,1.3,0.9,1.9,1.3c-0.5,1.6-0.3,4-3.6,3C225.8,367.2,226.4,365.8,227,364.4z"/>
              <path class="st3" d="M213.7,364.6c0.6,1.3,1.2,2.6,1.8,4.1c-2.8,0.3-2.8,0.3-3.6-3c0.6-0.3,1.3-0.7,2-1   C213.8,364.6,213.7,364.6,213.7,364.6z"/>
            </g>
            <g>
              <path class="st3" d="M386.7,97.3c1.5,0.3,3,0.6,5.2,0.9c0.3-0.3,1.2-1.2,2.1-2.1c0.2-0.2,0.4-0.4,0.7-0.7c1.8,1.5,3.6,3,5.5,4.6   c-1.1,1.6-1.7,2.5-2.3,3.4c0,1.9,3.7,1.9,2,4.3c-0.7,1.2-1.4,2.4-2.1,3.5c-1.1,1.5-2.2,3-3.2,4.6c-1.3,2.1-3,3-5.2,1.3   c-3.1-2.4-6.2-4.9-9.3-7.5c-2.1-1.7-1.4-3.4,0.1-5.1c1.1-1.2,2.2-2.5,3.3-3.7C384.5,99.7,385.6,98.5,386.7,97.3z"/>
              <path class="st3" d="M403.1,101.3c-3.5-2.7-7-5.4-10.5-8.2l0.1,0.1c-2.4-1.6-2.4-3.7-1.7-6.2c0.6-2.1,1.7-2.2,3-1.2   c5.4,4.2,10.6,8.4,15.8,12.7c1.4,1.2,1.3,2.4-0.8,3.3c-2.2,1-4.2,1.9-6-0.6L403.1,101.3z"/>
              <path class="st3" d="M397.6,111.3c0.7-1.2,1.4-2.4,2.1-3.5c0.9-0.5,1.7-1.1,2.7-1.7c0.8,3.5-5,13.4-9.1,14.3   C394.8,117.4,396.2,114.4,397.6,111.3z"/>
              <path class="st3" d="M386.7,97.3c-1.1,1.2-2.2,2.4-3.3,3.7c-2,1.6-3.9,3.2-5.9,4.7c-0.4,0.3-1.1,0.4-1.6,0.4   c-0.2,0-0.5-0.8-0.4-1.2c0.5-2.2,9.4-9.8,12.6-10.5C387.5,95.5,387.1,96.4,386.7,97.3z"/>
              <path class="st3" d="M403.1,101.3l-0.1-0.1c0.2,0.7,0.4,1.5,0.7,2.3c-1.4,0.9-2.7,2.9-4.7,0.1C400.4,102.8,401.7,102,403.1,101.3z"/>
              <path class="st3" d="M392.6,93.2c-0.4,1.4-0.8,2.8-1.2,4.3c-2.4-1.5-2.4-1.5-0.9-4.6c0.7,0.1,1.4,0.3,2.2,0.5   C392.7,93.2,392.6,93.2,392.6,93.2z"/>
            </g>
            <g>
              <path class="st3" d="M316.3,84c0.9-1.2,1.9-2.5,3.2-4.2c-0.1-0.4-0.5-1.6-0.9-2.8c-0.1-0.3-0.2-0.6-0.3-0.9   c2.2-0.9,4.3-1.8,6.6-2.8c0.9,1.7,1.5,2.7,2,3.6c1.7,0.9,3.3-2.4,4.8,0.2c0.7,1.1,1.5,2.3,2.2,3.5c0.9,1.7,1.7,3.4,2.6,5   c1.2,2.1,1.4,4-1.2,5.2c-3.6,1.7-7.2,3.3-10.9,4.9c-2.5,1.1-3.7-0.3-4.5-2.5c-0.6-1.6-1.2-3.1-1.8-4.6   C317.5,87.1,316.9,85.6,316.3,84z"/>
              <path class="st3" d="M327.4,71.3c-4,1.9-8,3.8-12,5.7l0.1-0.1c-2.5,1.4-4.4,0.5-6.3-1.3c-1.6-1.4-1.2-2.5,0.3-3.2   c6.1-2.9,12.3-5.7,18.5-8.3c1.7-0.7,2.7,0,2.6,2.2c-0.2,2.4-0.2,4.6-3.3,5.1C327.2,71.3,327.4,71.3,327.4,71.3z"/>
              <path class="st3" d="M333.8,80.7c-0.7-1.2-1.5-2.3-2.2-3.5c-0.1-1-0.1-2-0.2-3.2c3.5,0.9,9.6,10.6,8.6,14.6   C337.9,86,335.9,83.3,333.8,80.7z"/>
              <path class="st3" d="M316.3,84c0.6,1.5,1.2,3.1,1.7,4.6c0.5,2.5,1,4.9,1.5,7.4c0.1,0.5-0.1,1.1-0.4,1.6c-0.1,0.1-0.9,0-1.2-0.2   c-1.7-1.5-4.5-12.9-3.6-16C315.1,82.5,315.7,83.3,316.3,84z"/>
              <path class="st3" d="M327.4,71.3c0,0-0.1,0.1-0.1,0.1c0.7,0.1,1.5,0.3,2.3,0.4c0.1,1.7,1.3,3.7-2.1,4.3   C327.4,74.3,327.4,72.8,327.4,71.3z"/>
              <path class="st3" d="M315.3,76.9c1.1,1,2.1,1.9,3.3,3c-2.4,1.4-2.4,1.4-4.5-1.3c0.5-0.6,0.9-1.1,1.4-1.7   C315.4,76.9,315.3,76.9,315.3,76.9z"/>
            </g>
            <g>
              <path class="st3" d="M285.3,139c-0.5-1.5-0.9-3-1.6-5.1c-0.4-0.1-1.6-0.5-2.8-0.9c-0.3-0.1-0.6-0.2-0.9-0.3c0.5-2.3,1-4.6,1.6-7   c1.9,0.2,3,0.4,4.1,0.5c1.7-0.8,0-4.1,3-3.7c1.4,0.1,2.7,0.1,4.1,0.2c1.9,0.3,3.7,0.6,5.6,0.7c2.5,0.2,4.1,1.2,3.6,4   c-0.7,3.9-1.5,7.8-2.4,11.7c-0.6,2.6-2.4,2.9-4.6,2.2c-1.6-0.5-3.2-0.8-4.8-1.2C288.4,139.9,286.8,139.4,285.3,139z"/>
              <path class="st3" d="M281.3,122.6c-0.8,4.4-1.6,8.7-2.4,13.1l0-0.1c-0.3,2.8-2.1,3.9-4.7,4.4c-2.1,0.4-2.8-0.5-2.5-2.1   c1.2-6.7,2.6-13.3,4-19.9c0.4-1.8,1.5-2.2,3.3-0.8c1.9,1.5,3.6,2.9,2.2,5.6C281.2,122.8,281.3,122.6,281.3,122.6z"/>
              <path class="st3" d="M292.7,122.9c-1.4-0.1-2.7-0.1-4.1-0.2c-0.9-0.5-1.7-1.1-2.7-1.7c2.8-2.3,14.2-1.7,16.8,1.5   C299.4,122.6,296,122.7,292.7,122.9z"/>
              <path class="st3" d="M285.3,139c1.6,0.4,3.2,0.9,4.8,1.3c2.3,1,4.6,2,6.8,3.1c0.5,0.2,0.8,0.8,1.1,1.3c0.1,0.1-0.5,0.8-0.9,0.9   c-2.2,0.6-13.1-3.8-15.1-6.4C283.3,139.1,284.3,139.1,285.3,139z"/>
              <path class="st3" d="M281.3,122.6c0,0,0,0.1,0,0.1c0.5-0.5,1.1-1.1,1.7-1.6c1.4,0.8,3.8,1.1,2.2,4.2   C283.8,124.3,282.5,123.5,281.3,122.6z"/>
              <path class="st3" d="M278.9,135.7c1.4-0.3,2.8-0.6,4.3-0.9c-0.2,2.8-0.2,2.8-3.7,2.9c-0.2-0.7-0.4-1.4-0.6-2.1   C278.9,135.6,278.9,135.7,278.9,135.7z"/>
            </g>
            <circle class="st4" cx="346" cy="141" r="56.5"/>
            <circle class="st4" cx="128.5" cy="336.5" r="23"/>
            <circle class="st4" cx="151.5" cy="128.5" r="23"/>
            <g>
              <g>
                <path class="st5" d="M75,439.9c0,0-3.9-8,1.1-12.3C76.1,427.6,77,432.3,75,439.9"/>
                <path class="st5" d="M74.9,439.8c0,0,3.9-8,10.4-6.7C85.3,433.1,82.1,436.8,74.9,439.8"/>
                <path class="st5" d="M75,439.1c0,0,7.9,3.9,6.6,10.4C81.6,449.6,78,446.3,75,439.1"/>
                <path class="st5" d="M74.9,439.5c0,0,8.7-1.4,11.5,4.6C86.4,444.1,81.5,443.6,74.9,439.5"/>
                <path class="st5" d="M75.7,439.1c0,0,0.8,8.8-5.5,11.1C70.2,450.2,71.1,445.4,75.7,439.1"/>
                <path class="st5" d="M76.1,439.7c0,0-6.1,6.4-11.9,3.2C64.2,443,68.3,440.4,76.1,439.7"/>
                <path class="st5" d="M76,439.9c0,0-8.8-0.6-10.1-7.1C65.8,432.8,70.4,434.4,76,439.9"/>
              </g>
              <g>
                <path class="st4" d="M74.6,439.7c0,0-0.3-8.9,6-10.8C80.6,428.8,79.5,433.6,74.6,439.7"/>
                <path class="st4" d="M74.5,439.6c0,0,6.8-5.7,12.2-1.9C86.7,437.6,82.3,439.7,74.5,439.6"/>
                <path class="st4" d="M74.9,439c0,0,5.7,6.8,1.9,12.2C76.8,451.2,74.7,446.8,74.9,439"/>
                <path class="st4" d="M74.7,439.3c0,0,8.6,2.2,8.7,8.8C83.3,448.1,79.1,445.7,74.7,439.3"/>
                <path class="st4" d="M75.6,439.3c0,0-2.8,8.4-9.5,8C66.1,447.2,68.8,443.2,75.6,439.3"/>
                <path class="st4" d="M75.7,440c0,0-8.2,3.4-12.2-1.8C63.5,438.2,68.3,437.5,75.7,440"/>
                <path class="st4" d="M75.5,440.1c0,0-7.9-4.1-6.5-10.5C69,429.5,72.6,432.8,75.5,440.1"/>
              </g>
            </g>
            <g>
              <g>
                <path class="st5" d="M439.5,219.4c0,0-3.9-8,1.1-12.3C440.6,207.1,441.5,211.8,439.5,219.4"/>
                <path class="st5" d="M439.4,219.3c0,0,3.9-8,10.4-6.7C449.8,212.6,446.6,216.3,439.4,219.3"/>
                <path class="st5" d="M439.5,218.6c0,0,7.9,3.9,6.6,10.4C446.1,229.1,442.5,225.8,439.5,218.6"/>
                <path class="st5" d="M439.4,219c0,0,8.7-1.4,11.5,4.6C450.9,223.6,446,223.1,439.4,219"/>
                <path class="st5" d="M440.2,218.6c0,0,0.8,8.8-5.5,11.1C434.7,229.7,435.6,224.9,440.2,218.6"/>
                <path class="st5" d="M440.6,219.2c0,0-6.1,6.4-11.9,3.2C428.7,222.5,432.8,219.9,440.6,219.2"/>
                <path class="st5" d="M440.5,219.4c0,0-8.8-0.6-10.1-7.1C430.3,212.3,434.9,213.9,440.5,219.4"/>
              </g>
              <g>
                <path class="st4" d="M439.1,219.2c0,0-0.3-8.9,6-10.8C445.1,208.3,444,213.1,439.1,219.2"/>
                <path class="st4" d="M439,219.1c0,0,6.8-5.7,12.2-1.9C451.2,217.1,446.8,219.2,439,219.1"/>
                <path class="st4" d="M439.4,218.5c0,0,5.7,6.8,1.9,12.2C441.3,230.7,439.2,226.3,439.4,218.5"/>
                <path class="st4" d="M439.2,218.8c0,0,8.6,2.2,8.7,8.8C447.8,227.6,443.6,225.2,439.2,218.8"/>
                <path class="st4" d="M440.1,218.8c0,0-2.8,8.4-9.5,8C430.6,226.7,433.3,222.7,440.1,218.8"/>
                <path class="st4" d="M440.2,219.5c0,0-8.2,3.4-12.2-1.8C428,217.7,432.8,217,440.2,219.5"/>
                <path class="st4" d="M440,219.6c0,0-7.9-4.1-6.5-10.5C433.5,209,437.1,212.3,440,219.6"/>
              </g>
            </g>
            <g>
              <g>
                <path class="st5" d="M68.5,74.4c0,0-3.9-8,1.1-12.3C69.6,62.1,70.5,66.8,68.5,74.4"/>
                <path class="st5" d="M68.4,74.3c0,0,3.9-8,10.4-6.7C78.8,67.6,75.6,71.3,68.4,74.3"/>
                <path class="st5" d="M68.5,73.6c0,0,7.9,3.9,6.6,10.4C75.1,84.1,71.5,80.8,68.5,73.6"/>
                <path class="st5" d="M68.4,74c0,0,8.7-1.4,11.5,4.6C79.9,78.6,75,78.1,68.4,74"/>
                <path class="st5" d="M69.2,73.6c0,0,0.8,8.8-5.5,11.1C63.7,84.7,64.6,79.9,69.2,73.6"/>
                <path class="st5" d="M69.6,74.2c0,0-6.1,6.4-11.9,3.2C57.7,77.5,61.8,74.9,69.6,74.2"/>
                <path class="st5" d="M69.5,74.4c0,0-8.8-0.6-10.1-7.1C59.3,67.3,63.9,68.9,69.5,74.4"/>
              </g>
              <g>
                <path class="st4" d="M68.1,74.2c0,0-0.3-8.9,6-10.8C74.1,63.3,73,68.1,68.1,74.2"/>
                <path class="st4" d="M68,74.1c0,0,6.8-5.7,12.2-1.9C80.2,72.1,75.8,74.2,68,74.1"/>
                <path class="st4" d="M68.4,73.5c0,0,5.7,6.8,1.9,12.2C70.3,85.7,68.2,81.3,68.4,73.5"/>
                <path class="st4" d="M68.2,73.8c0,0,8.6,2.2,8.7,8.8C76.8,82.6,72.6,80.2,68.2,73.8"/>
                <path class="st4" d="M69.1,73.8c0,0-2.8,8.4-9.5,8C59.6,81.7,62.3,77.7,69.1,73.8"/>
                <path class="st4" d="M69.2,74.5c0,0-8.2,3.4-12.2-1.8C57,72.7,61.8,72,69.2,74.5"/>
                <path class="st4" d="M69,74.6c0,0-7.9-4.1-6.5-10.5C62.5,64,66.1,67.3,69,74.6"/>
              </g>
            </g>
            <g>
              <g>
                <path class="st6" d="M155,91H98.8c-3.5,0-6.4-2.9-6.4-6.4V73.9c0-3.6,2.9-6.5,6.5-6.5h56.7v23C155.6,90.7,155.3,91,155,91z"/>
                <path class="st7" d="M89.5,84.9V65.8c0-0.7,0.6-1.3,1.3-1.3h4c0.7,0,1.3,0.6,1.3,1.3v19.4c0,0.6-0.5,1.1-1.1,1.1H91    C90.2,86.4,89.5,85.7,89.5,84.9z"/>
                <path class="st6" d="M156.2,67.4h56.2c3.5,0,6.4,2.9,6.4,6.4v10.7c0,3.6-2.9,6.5-6.5,6.5h-56.7V68    C155.6,67.7,155.9,67.4,156.2,67.4z"/>
                <path class="st7" d="M214.4,84.9V65.8c0-0.7,0.6-1.3,1.3-1.3h4c0.7,0,1.3,0.6,1.3,1.3v19.4c0,0.6-0.5,1.1-1.1,1.1H216    C215.1,86.4,214.4,85.7,214.4,84.9z"/>
              </g>
              <path class="st8" d="M214.3,67.4H96.3c-1.7,0-3.1-1.4-3.1-3.1v-0.6c0-1.8,1.4-3.2,3.2-3.2h119c1.5,0,2.8,1.2,2.8,2.8v0.4   C218.1,65.7,216.4,67.4,214.3,67.4z"/>
            </g>
            <g>
              <g>
                <path class="st6" d="M91.5,337v56.2c0,3.5-2.9,6.4-6.4,6.4H74.4c-3.6,0-6.5-2.9-6.5-6.5v-56.7h23C91.2,336.4,91.5,336.7,91.5,337z    "/>
                <path class="st7" d="M85.4,402.5H66.3c-0.7,0-1.3-0.6-1.3-1.3v-4c0-0.7,0.6-1.3,1.3-1.3h19.4c0.6,0,1.1,0.5,1.1,1.1v3.9    C86.9,401.8,86.2,402.5,85.4,402.5z"/>
                <path class="st6" d="M67.9,335.7v-56.2c0-3.5,2.9-6.4,6.4-6.4H85c3.6,0,6.5,2.9,6.5,6.5v56.7h-23    C68.2,336.4,67.9,336.1,67.9,335.7z"/>
                <path class="st7" d="M85.4,277.5H66.3c-0.7,0-1.3-0.6-1.3-1.3v-4c0-0.7,0.6-1.3,1.3-1.3h19.4c0.6,0,1.1,0.5,1.1,1.1v3.9    C86.9,276.9,86.2,277.5,85.4,277.5z"/>
              </g>
              <path class="st8" d="M67.9,277.7v118.1c0,1.7-1.4,3.1-3.1,3.1h-0.6c-1.8,0-3.2-1.4-3.2-3.2v-119c0-1.5,1.2-2.8,2.8-2.8h0.4   C66.2,273.9,67.9,275.6,67.9,277.7z"/>
            </g>
            <rect x="190.5" y="377.5" class="st3" width="57" height="33"/>
            <rect x="285.5" y="377.5" class="st3" width="57" height="33"/>
            <rect x="381.5" y="377.5" class="st3" width="57" height="33"/>
            <g>
              <rect x="97.6" y="413.1" class="st4" width="51.4" height="25.3"/>
              <rect x="108.2" y="438.4" class="st4" width="30.2" height="6.5"/>
              <path class="st4" d="M131.1,451.4h-16.3c-1.8,0-3.3-1.5-3.3-3.3v0c0-1.8,1.5-3.3,3.3-3.3h16.3c1.8,0,3.3,1.5,3.3,3.3v0   C134.3,450,132.9,451.4,131.1,451.4z"/>
            </g>
            <rect x="227.5" y="246.5" class="st3" width="99" height="9"/>
            <rect x="375.5" y="246.5" class="st3" width="79" height="9"/>
            <rect x="332.5" y="246.5" class="st3" width="34" height="9"/>
            </svg>