<svg
	xmlns:dc="http://purl.org/dc/elements/1.1/"
	xmlns:cc="http://web.resource.org/cc/"
	xmlns:rdf="http://www.w3.org/1999/02/22-rdf-syntax-ns#"
	xmlns:svg="http://www.w3.org/2000/svg"
	xmlns="http://www.w3.org/2000/svg"
	xmlns:xlink="http://www.w3.org/1999/xlink"
	xmlns:sodipodi="http://sodipodi.sourceforge.net/DTD/sodipodi-0.dtd"
	xmlns:inkscape="http://www.inkscape.org/namespaces/inkscape"
	width="1037.7123"
	height="591.45416"
	id="svg4833"
	sodipodi:version="0.32"
	inkscape:version="0.45+devel"
	version="1.0"
	sodipodi:docbase="/Users/jamesscheibe/Desktop"
	sodipodi:docname="pool table, cue, balls.svg"
	inkscape:output_extension="org.inkscape.output.svg.inkscape"
	style="&#10;    background: #202020;&#10;"
>
	<defs id="defs4835" />
	<sodipodi:namedview
		id="base"
		pagecolor="#ffffff"
		bordercolor="#666666"
		borderopacity="1.0"
		inkscape:pageopacity="0.0"
		inkscape:pageshadow="2"
		inkscape:zoom="0.5"
		inkscape:cx="839.53382"
		inkscape:cy="356.58622"
		inkscape:current-layer="layer1"
		inkscape:document-units="px"
		inkscape:window-width="998"
		inkscape:window-height="621"
		inkscape:window-x="1"
		inkscape:window-y="24"
		showborder="false"
		inkscape:showpageshadow="false"
	/>
	<metadata id="metadata4838">
		<rdf:RDF>
			<cc:Work rdf:about="">
				<dc:format>image/svg+xml</dc:format>
				<dc:type
					rdf:resource="http://purl.org/dc/dcmitype/StillImage"
				/>
				<dc:title>pool table, cue, balls</dc:title>
				<dc:date>3/15/07</dc:date>
				<dc:creator>
					<cc:Agent>
						<dc:title>James R. Scheibe</dc:title>
					</cc:Agent>
				</dc:creator>
				<dc:subject>
					<rdf:Bag>
						<rdf:li>pool</rdf:li>
						<rdf:li>billiards</rdf:li>
						<rdf:li>table</rdf:li>
						<rdf:li>cue</rdf:li>
						<rdf:li>8 ball</rdf:li>
						<rdf:li>stripes</rdf:li>
						<rdf:li>solids</rdf:li>
					</rdf:Bag>
				</dc:subject>
				<dc:description
					>pool table, wooden cue, numbered balls</dc:description
				>
				<cc:license
					rdf:resource="http://web.resource.org/cc/PublicDomain"
				/>
			</cc:Work>
			<cc:License rdf:about="http://web.resource.org/cc/PublicDomain">
				<cc:permits
					rdf:resource="http://web.resource.org/cc/Reproduction"
				/>
				<cc:permits
					rdf:resource="http://web.resource.org/cc/Distribution"
				/>
				<cc:permits
					rdf:resource="http://web.resource.org/cc/DerivativeWorks"
				/>
			</cc:License>
		</rdf:RDF>
	</metadata>

	<g class="pool-board">
		<g>
			<g
				id="layer1"
				inkscape:label="Layer 1"
				inkscape:groupmode="layer"
				transform="translate(0.85618,-86.272926)"
			>
				<path
					sodipodi:type="arc"
					style="
						opacity: 1;
						fill: #ffffff;
						fill-opacity: 1;
						stroke: none;
						stroke-opacity: 1;
						display: inline;
					"
					id="path4924"
					sodipodi:cx="351.96429"
					sodipodi:cy="531.29077"
					sodipodi:rx="2.5"
					sodipodi:ry="2.5"
					d="M 354.46429,531.29077 A 2.5,2.5 0 1 1 349.46429,531.29077 A 2.5,2.5 0 1 1 354.46429,531.29077 z"
					transform="matrix(0.125,0,0,0.125,-33.53768,20.17408)"
				/>
				<g id="g2379" transform="translate(0,-1.9999914)">
					<g id="g2343">
						<path
							style="
								fill: none;
								fill-opacity: 1;
								display: inline;
								stroke-width: 2px;
								stroke: #fff;
							"
							d="M 25.38592,90.22708 C 6.70982,90.64528 -1.78998,101.24188 -0.65308,121.47318 L -0.85618,119.02398 L -0.85618,648.43408 L -0.68048,646.43808 C -2.04558,666.35638 6.24422,676.62038 23.69062,677.72708 L 30.43282,677.72708 L 1014.2961,677.72708 C 1028.0306,676.32148 1035.3909,668.54018 1036.6438,654.65288 L 1036.6438,112.60988 C 1035.1951,98.58708 1027.0885,91.22258 1012.6125,90.22708 L 29.12812,90.22708 L 30.63592,90.35988 C 29.58922,90.28818 28.57092,90.24558 27.57742,90.22708 L 25.38592,90.22708 z M 517.43282,113.02008 C 517.47742,113.01938 517.52102,113.02048 517.56562,113.02008 C 517.61042,113.01958 517.65372,113.02028 517.69842,113.02008 C 529.34452,112.95968 541.03342,119.99768 544.83132,133.97708 L 953.16332,133.97708 L 958.56172,128.57868 C 965.36692,122.68818 972.57972,120.17208 979.30782,120.14118 C 1001.2865,120.04018 1018.0691,146.45758 998.38202,168.39898 L 992.89382,173.88728 L 992.89382,594.09818 L 997.56562,598.77008 C 1022.6982,627.80548 986.40352,664.30408 957.74532,638.59038 L 953.13202,633.97708 L 544.70242,633.97708 C 537.40432,662.26518 498.10002,662.66908 490.65942,633.97708 L 82.53442,633.97708 L 77.44452,639.06698 C 48.40912,664.19948 11.91052,627.90478 37.62422,599.24658 L 42.89382,593.97708 L 42.89382,173.73098 L 37.76092,168.59818 C 18.71522,146.59478 34.94662,120.30438 56.39772,120.05128 C 63.25322,119.97038 70.64062,122.55038 77.58132,128.77788 L 82.78052,133.97708 L 491.00312,133.97708 C 494.77842,120.12708 506.05742,113.18548 517.43282,113.02008 z"
							id="rect1307"
						/>
						<g id="g2309">
							<path
								id="rect1318"
								d="M 78.47972,133.97708 L 89.48752,143.37948 C 89.43812,170.90008 78.50782,180.70808 52.11252,180.87948 L 42.89382,170.62558 L 42.89382,598.11378 L 51.93672,587.52788 C 79.45732,587.57728 89.26542,598.50758 89.43672,624.90288 L 79.34302,633.97708 L 491.30782,633.97708 L 491.02662,627.30128 C 508.53012,614.29208 526.37842,614.62048 544.58912,627.30128 L 544.58912,633.97708 L 957.18282,633.97708 L 945.76882,624.22708 C 945.81822,596.70648 956.74842,586.89848 983.14382,586.72708 L 992.89382,597.57478 L 992.89382,169.97708 L 983.83912,180.57868 C 956.31852,180.52918 946.51042,169.59898 946.33912,143.20368 L 956.60472,133.97708 L 544.85472,133.97708 L 544.85472,141.56308 C 526.64402,154.24388 508.79182,154.57218 491.28832,141.56308 L 491.61252,133.97708 L 78.47972,133.97708 z"
								style="
									fill: none;
									fill-opacity: 1;
									display: inline;
								"
							/>
							<path
								id="rect2194"
								d="M 80.39382,133.97708 L 105.39382,158.97708 L 485.39382,158.97708 L 485.39382,158.97708 L 493.64382,133.97708 L 80.39382,133.97708 z M 542.14382,133.97708 L 550.39382,158.97708 L 550.39382,158.97708 L 930.39382,158.97708 C 955.39382,133.97708 955.39382,133.97708 955.39382,133.97708 L 955.39382,133.97708 L 542.14382,133.97708 z M 992.89382,171.47708 L 992.89382,171.47708 L 967.89382,196.47708 L 967.89382,571.47708 C 992.89382,596.47708 992.89382,596.47708 992.89382,596.47708 L 992.89382,596.47708 L 992.89382,171.47708 z M 42.89382,171.47708 L 42.89382,596.47708 L 67.89382,571.47708 L 67.89382,571.47708 L 67.89382,196.47708 C 42.89382,171.47708 42.89382,171.47708 42.89382,171.47708 L 42.89382,171.47708 z M 105.39382,608.97708 L 105.39382,608.97708 C 80.39382,633.97708 80.39382,633.97708 80.39382,633.97708 L 492.89382,633.97708 L 492.89382,633.97708 L 485.39382,608.97708 L 105.39382,608.97708 z M 550.39382,608.97708 L 542.14382,633.97708 L 542.14382,633.97708 L 955.39382,633.97708 L 930.39382,608.97708 L 550.39382,608.97708 z"
								style="
									fill: none;
									fill-opacity: 1;
									display: inline;
									stroke: #fff;
									stroke-width: 2px;
								"
							/>
							<g id="g2278">
								<path
									sodipodi:type="arc"
									style="
										opacity: 1;
										fill: #ffffff;
										fill-opacity: 1;
										stroke: none;
										stroke-opacity: 1;
										display: inline;
									"
									id="path5802"
									sodipodi:cx="371.96429"
									sodipodi:cy="545.75507"
									sodipodi:rx="25"
									sodipodi:ry="25"
									d="M 396.96429,545.75507 A 25,25 0 1 1 346.96429,545.75507 A 25,25 0 1 1 396.96429,545.75507 z"
									transform="matrix(0.125,0,0,0.125,-16.10168,435.25708)"
								/>
								<path
									sodipodi:type="arc"
									style="
										opacity: 1;
										fill: #ffffff;
										fill-opacity: 1;
										stroke: none;
										stroke-opacity: 1;
										display: inline;
									"
									id="path5805"
									sodipodi:cx="371.96429"
									sodipodi:cy="545.75507"
									sodipodi:rx="25"
									sodipodi:ry="25"
									d="M 396.96429,545.75507 A 25,25 0 1 1 346.96429,545.75507 A 25,25 0 1 1 396.96429,545.75507 z"
									transform="matrix(0.125,0,0,0.125,-16.10168,312.63208)"
								/>
								<path
									sodipodi:type="arc"
									style="
										opacity: 1;
										fill: #ffffff;
										fill-opacity: 1;
										stroke: none;
										stroke-opacity: 1;
										display: inline;
									"
									id="path5807"
									sodipodi:cx="371.96429"
									sodipodi:cy="545.75507"
									sodipodi:rx="25"
									sodipodi:ry="25"
									d="M 396.96429,545.75507 A 25,25 0 1 1 346.96429,545.75507 A 25,25 0 1 1 396.96429,545.75507 z"
									transform="matrix(0.125,0,0,0.125,-16.10168,190.00708)"
								/>
								<path
									sodipodi:type="arc"
									style="
										opacity: 1;
										fill: #ffffff;
										fill-opacity: 1;
										stroke: none;
										stroke-opacity: 1;
										display: inline;
									"
									id="path5809"
									sodipodi:cx="371.96429"
									sodipodi:cy="545.75507"
									sodipodi:rx="25"
									sodipodi:ry="25"
									d="M 396.96429,545.75507 A 25,25 0 1 1 346.96429,545.75507 A 25,25 0 1 1 396.96429,545.75507 z"
									transform="matrix(0.125,0,0,0.125,127.64832,47.00708)"
								/>
								<path
									sodipodi:type="arc"
									style="
										opacity: 1;
										fill: #ffffff;
										fill-opacity: 1;
										stroke: none;
										stroke-opacity: 1;
										display: inline;
									"
									id="path5811"
									sodipodi:cx="371.96429"
									sodipodi:cy="545.75507"
									sodipodi:rx="25"
									sodipodi:ry="25"
									d="M 396.96429,545.75507 A 25,25 0 1 1 346.96429,545.75507 A 25,25 0 1 1 396.96429,545.75507 z"
									transform="matrix(0.125,0,0,0.125,250.27332,47.00708)"
								/>
								<path
									sodipodi:type="arc"
									style="
										opacity: 1;
										fill: #ffffff;
										fill-opacity: 1;
										stroke: none;
										stroke-opacity: 1;
										display: inline;
									"
									id="path5813"
									sodipodi:cx="371.96429"
									sodipodi:cy="545.75507"
									sodipodi:rx="25"
									sodipodi:ry="25"
									d="M 396.96429,545.75507 A 25,25 0 1 1 346.96429,545.75507 A 25,25 0 1 1 396.96429,545.75507 z"
									transform="matrix(0.125,0,0,0.125,372.89832,47.00708)"
								/>
								<path
									sodipodi:type="arc"
									style="
										opacity: 1;
										fill: #ffffff;
										fill-opacity: 1;
										stroke: none;
										stroke-opacity: 1;
										display: inline;
									"
									id="path5815"
									sodipodi:cx="371.96429"
									sodipodi:cy="545.75507"
									sodipodi:rx="25"
									sodipodi:ry="25"
									d="M 396.96429,545.75507 A 25,25 0 1 1 346.96429,545.75507 A 25,25 0 1 1 396.96429,545.75507 z"
									transform="matrix(0.125,0,0,0.125,576.14832,47.00708)"
								/>
								<path
									sodipodi:type="arc"
									style="
										opacity: 1;
										fill: #ffffff;
										fill-opacity: 1;
										stroke: none;
										stroke-opacity: 1;
										display: inline;
									"
									id="path5817"
									sodipodi:cx="371.96429"
									sodipodi:cy="545.75507"
									sodipodi:rx="25"
									sodipodi:ry="25"
									d="M 396.96429,545.75507 A 25,25 0 1 1 346.96429,545.75507 A 25,25 0 1 1 396.96429,545.75507 z"
									transform="matrix(0.125,0,0,0.125,698.77332,47.00708)"
								/>
								<path
									sodipodi:type="arc"
									style="
										opacity: 1;
										fill: #ffffff;
										fill-opacity: 1;
										stroke: none;
										stroke-opacity: 1;
										display: inline;
									"
									id="path5819"
									sodipodi:cx="371.96429"
									sodipodi:cy="545.75507"
									sodipodi:rx="25"
									sodipodi:ry="25"
									d="M 396.96429,545.75507 A 25,25 0 1 1 346.96429,545.75507 A 25,25 0 1 1 396.96429,545.75507 z"
									transform="matrix(0.125,0,0,0.125,821.39832,47.00708)"
								/>
								<path
									sodipodi:type="arc"
									style="
										opacity: 1;
										fill: #ffffff;
										fill-opacity: 1;
										stroke: none;
										stroke-opacity: 1;
										display: inline;
									"
									id="path5821"
									sodipodi:cx="371.96429"
									sodipodi:cy="545.75507"
									sodipodi:rx="25"
									sodipodi:ry="25"
									d="M 396.96429,545.75507 A 25,25 0 1 1 346.96429,545.75507 A 25,25 0 1 1 396.96429,545.75507 z"
									transform="matrix(0.125,0,0,0.125,965.14832,190.00708)"
								/>
								<path
									sodipodi:type="arc"
									style="
										opacity: 1;
										fill: #ffffff;
										fill-opacity: 1;
										stroke: none;
										stroke-opacity: 1;
										display: inline;
									"
									id="path5823"
									sodipodi:cx="371.96429"
									sodipodi:cy="545.75507"
									sodipodi:rx="25"
									sodipodi:ry="25"
									d="M 396.96429,545.75507 A 25,25 0 1 1 346.96429,545.75507 A 25,25 0 1 1 396.96429,545.75507 z"
									transform="matrix(0.125,0,0,0.125,965.14832,312.63208)"
								/>
								<path
									sodipodi:type="arc"
									style="
										opacity: 1;
										fill: #ffffff;
										fill-opacity: 1;
										stroke: none;
										stroke-opacity: 1;
										display: inline;
									"
									id="path5827"
									sodipodi:cx="371.96429"
									sodipodi:cy="545.75507"
									sodipodi:rx="25"
									sodipodi:ry="25"
									d="M 396.96429,545.75507 A 25,25 0 1 1 346.96429,545.75507 A 25,25 0 1 1 396.96429,545.75507 z"
									transform="matrix(0.125,0,0,0.125,965.14832,435.25708)"
								/>
								<path
									sodipodi:type="arc"
									style="
										opacity: 1;
										fill: #ffffff;
										fill-opacity: 1;
										stroke: none;
										stroke-opacity: 1;
										display: inline;
									"
									id="path5829"
									sodipodi:cx="371.96429"
									sodipodi:cy="545.75507"
									sodipodi:rx="25"
									sodipodi:ry="25"
									d="M 396.96429,545.75507 A 25,25 0 1 1 346.96429,545.75507 A 25,25 0 1 1 396.96429,545.75507 z"
									transform="matrix(0.125,0,0,0.125,821.39832,578.25708)"
								/>
								<path
									sodipodi:type="arc"
									style="
										opacity: 1;
										fill: #ffffff;
										fill-opacity: 1;
										stroke: none;
										stroke-opacity: 1;
										display: inline;
									"
									id="path5831"
									sodipodi:cx="371.96429"
									sodipodi:cy="545.75507"
									sodipodi:rx="25"
									sodipodi:ry="25"
									d="M 396.96429,545.75507 A 25,25 0 1 1 346.96429,545.75507 A 25,25 0 1 1 396.96429,545.75507 z"
									transform="matrix(0.125,0,0,0.125,698.77332,578.25708)"
								/>
								<path
									sodipodi:type="arc"
									style="
										opacity: 1;
										fill: #ffffff;
										fill-opacity: 1;
										stroke: none;
										stroke-opacity: 1;
										display: inline;
									"
									id="path5833"
									sodipodi:cx="371.96429"
									sodipodi:cy="545.75507"
									sodipodi:rx="25"
									sodipodi:ry="25"
									d="M 396.96429,545.75507 A 25,25 0 1 1 346.96429,545.75507 A 25,25 0 1 1 396.96429,545.75507 z"
									transform="matrix(0.125,0,0,0.125,576.14832,578.25708)"
								/>
								<path
									sodipodi:type="arc"
									style="
										opacity: 1;
										fill: #ffffff;
										fill-opacity: 1;
										stroke: none;
										stroke-opacity: 1;
										display: inline;
									"
									id="path5835"
									sodipodi:cx="371.96429"
									sodipodi:cy="545.75507"
									sodipodi:rx="25"
									sodipodi:ry="25"
									d="M 396.96429,545.75507 A 25,25 0 1 1 346.96429,545.75507 A 25,25 0 1 1 396.96429,545.75507 z"
									transform="matrix(0.125,0,0,0.125,372.89832,578.25708)"
								/>
								<path
									sodipodi:type="arc"
									style="
										opacity: 1;
										fill: #ffffff;
										fill-opacity: 1;
										stroke: none;
										stroke-opacity: 1;
										display: inline;
									"
									id="path5837"
									sodipodi:cx="371.96429"
									sodipodi:cy="545.75507"
									sodipodi:rx="25"
									sodipodi:ry="25"
									d="M 396.96429,545.75507 A 25,25 0 1 1 346.96429,545.75507 A 25,25 0 1 1 396.96429,545.75507 z"
									transform="matrix(0.125,0,0,0.125,250.27332,578.25708)"
								/>
								<path
									sodipodi:type="arc"
									style="
										opacity: 1;
										fill: #ffffff;
										fill-opacity: 1;
										stroke: none;
										stroke-opacity: 1;
										display: inline;
									"
									id="path5839"
									sodipodi:cx="371.96429"
									sodipodi:cy="545.75507"
									sodipodi:rx="25"
									sodipodi:ry="25"
									d="M 396.96429,545.75507 A 25,25 0 1 1 346.96429,545.75507 A 25,25 0 1 1 396.96429,545.75507 z"
									transform="matrix(0.125,0,0,0.125,127.64832,578.25708)"
								/>
								<g id="g2266">
									<path
										sodipodi:nodetypes="ccccccc"
										id="path5864"
										d="M 71.09192,123.88568 L 71.09192,90.12138 L 27.25132,90.12138 C 8.72022,89.98028 -1.00268,98.86748 -0.67948,118.05208 L -0.67948,162.06948 L 32.90812,162.06948 C 19.88522,138.35118 44.52542,109.31138 71.09192,123.88568 z"
										style="
											fill: none;
											fill-opacity: 1;
											fill-rule: evenodd;
											stroke: #fff;
											stroke-width: 2;
											stroke-linecap: butt;
											stroke-linejoin: miter;
											stroke-opacity: 1;
											display: inline;
										"
									/>
									<path
										sodipodi:nodetypes="ccccccc"
										id="path6739"
										d="M 1003.0277,162.08718 L 1036.792,162.08718 L 1036.792,118.24658 C 1036.9331,99.71548 1028.0459,89.99258 1008.8613,90.31588 L 964.84392,90.31588 L 964.84392,123.90338 C 988.56222,110.88048 1017.602,135.52068 1003.0277,162.08718 z"
										style="
											fill: none;
											fill-opacity: 1;
											fill-rule: evenodd;
											stroke: #fff;
											stroke-width: 2px;
											stroke-linecap: butt;
											stroke-linejoin: miter;
											stroke-opacity: 1;
											display: inline;
										"
									/>
									<path
										sodipodi:nodetypes="ccccccc"
										id="path6741"
										d="M 33.04362,605.57098 L -0.72068,605.57098 L -0.72068,649.41158 C -0.86178,667.94268 8.02542,677.66558 27.21002,677.34228 L 71.22742,677.34228 L 71.22742,643.75478 C 47.50912,656.77768 18.46922,632.13748 33.04362,605.57098 z"
										style="
											fill: none;
											fill-opacity: 1;
											fill-rule: evenodd;
											stroke: #fff;
											stroke-width: 2px;
											stroke-linecap: butt;
											stroke-linejoin: miter;
											stroke-opacity: 1;
											display: inline;
										"
									/>
									<path
										sodipodi:nodetypes="ccccccc"
										id="path6743"
										d="M 964.72162,643.80898 L 964.72162,677.57338 L 1008.5622,677.57338 C 1027.0933,677.71448 1036.8162,668.82718 1036.4929,649.64268 L 1036.4929,605.62528 L 1002.9054,605.62528 C 1015.9283,629.34348 991.28812,658.38338 964.72162,643.80898 z"
										style="
											fill: none;
											fill-opacity: 1;
											fill-rule: evenodd;
											stroke: #fff;
											stroke-width: 2px;
											stroke-linecap: butt;
											stroke-linejoin: miter;
											stroke-opacity: 1;
											display: inline;
										"
									/>
								</g>
							</g>
						</g>
					</g>
				</g>
				<g
					transform="matrix(1.1931048,-0.1623144,0.1465653,1.0773399,76.344027,71.268001)"
					id="g4900"
					inkscape:transform-center-y="32.526912"
					inkscape:transform-center-x="-12.727922"
				>
					<path
						sodipodi:nodetypes="ccccc"
						id="path2164"
						d="M 8.3001882,199.79663 L 0.47967236,197.8807 L 0.47967236,189.20858 L 8.3249466,187.29265 L 8.3001882,199.79663 z"
						style="
							fill: none;
							fill-opacity: 1;
							fill-rule: evenodd;
							stroke: #fff;
							stroke-width: 0.17479627;
							stroke-linecap: round;
							stroke-linejoin: round;
							marker-start: none;
							marker-mid: none;
							marker-end: none;
							stroke-miterlimit: 4;
							stroke-dasharray: none;
							stroke-opacity: 1;
							display: inline;
						"
					/>
					<path
						id="path5037"
						d="M 598.24277,191.04676 C 598.22194,191.60204 598.23297,192.16219 598.22444,192.7193 C 598.21757,193.8119 598.21222,194.90451 598.20613,195.99712 C 598.28541,196.05941 598.42808,196.00736 598.5317,196.02447 C 598.82256,196.02447 599.11343,196.02447 599.40429,196.02447 C 599.49464,195.90798 599.53308,195.74864 599.59511,195.61192 C 599.86541,194.90243 600.02799,194.14738 599.99611,193.38717 C 599.98621,192.58354 599.75463,191.79656 599.42812,191.065 C 599.27524,191.0245 599.09932,191.05584 598.9375,191.04323 C 598.70679,191.04743 598.46977,191.02583 598.24277,191.04676 z"
						style="
							fill: #2b1100;
							fill-opacity: 1;
							stroke: none;
							stroke-width: 2;
							stroke-linecap: round;
							stroke-linejoin: bevel;
							stroke-miterlimit: 4;
							stroke-dasharray: none;
							stroke-opacity: 1;
						"
					/>
					<path
						id="path5424"
						d="M 591.77589,191.06593 C 591.7464,192.60985 591.77168,194.16323 591.76325,195.71078 C 591.67007,196.00734 591.89912,196.0595 592.14945,196.01463 C 594.16012,196.01463 596.1708,196.01463 598.18147,196.01463 C 598.30712,195.86231 598.20213,195.58817 598.23665,195.38906 C 598.23665,193.95919 598.23665,192.52931 598.23665,191.09944 C 598.07993,190.97733 597.79786,191.07937 597.59299,191.04582 C 595.66813,191.04582 593.74329,191.04582 591.81844,191.04582 L 591.78535,191.06146 L 591.77589,191.06593 z"
						style="
							fill: none;
							fill-opacity: 1;
							fill-rule: evenodd;
							stroke: #fff;
							stroke-width: 2;
							stroke-linecap: butt;
							stroke-linejoin: miter;
							stroke-miterlimit: 0;
							stroke-dasharray: none;
							stroke-opacity: 1;
						"
					/>
					<path
						mask="none"
						sodipodi:nodetypes="ccccc"
						id="path3094"
						d="M 8.1698606,199.9776 L 8.1698606,187.11595 L 591.75953,191.06528 L 591.77796,196.02419 L 8.1698606,199.9776 z"
						style="
							fill: none;
							fill-opacity: 1;
							fill-rule: evenodd;
							stroke: #fff;
							stroke-width: 2;
							stroke-linecap: butt;
							stroke-linejoin: miter;
							stroke-miterlimit: 0;
							stroke-dasharray: none;
							stroke-opacity: 1;
						"
					/>
					<path
						sodipodi:nodetypes="ccccccccc"
						id="path3905"
						d="M 8.4050922,187.10124 L 8.368227,199.96397 L 226.32205,198.49378 L 156.72638,196.20449 L 156.62315,196.20449 L 226.27781,193.48114 L 156.62315,190.7609 C 156.62315,190.7609 158.09925,190.69053 226.28517,188.61912 L 8.4050922,187.10124 z"
						style="
							fill: #fff;
							fill-opacity: 1;
							fill-rule: evenodd;
							stroke: #fff;
							stroke-width: 0;
							stroke-linecap: butt;
							stroke-linejoin: miter;
							stroke-miterlimit: 0;
							stroke-dasharray: none;
							stroke-opacity: 1;
						"
					/>
					<use
						height="17.503983"
						width="602.24365"
						id="use4691"
						xlink:href="#path2164"
						y="0"
						x="0"
					/>
					<use
						height="17.503983"
						width="602.24365"
						id="use4693"
						xlink:href="#path5037"
						y="0"
						x="0"
					/>
					<use
						height="17.503983"
						width="602.24365"
						id="use4695"
						xlink:href="#path5424"
						y="0"
						x="0"
					/>
				</g>
				<path
					d="M 214.28571,169.50504 A 65.714287,65.714287 0 1 1 82.85714,169.50504 A 65.714287,65.714287 0 1 1 214.28571,169.50504 z"
					sodipodi:ry="65.714287"
					sodipodi:rx="65.714287"
					sodipodi:cy="169.50504"
					sodipodi:cx="148.57143"
					id="path2124"
					style="
						opacity: 1;
						fill: none;
						fill-opacity: 1;
						fill-rule: nonzero;
						stroke: #fff;
						stroke-width: 10;
						stroke-linecap: butt;
						stroke-linejoin: round;
						stroke-miterlimit: 4;
						stroke-dasharray: none;
						stroke-opacity: 1;
					"
					sodipodi:type="arc"
					transform="matrix(0.2257647,0,0,0.2257647,258.41391,339.77127)"
				/>
				<g
					id="g3691"
					transform="matrix(0,-1,1,0,546.47994,764.28869)"
					style="
						stroke-width: 0;
						stroke-miterlimit: 4;
						stroke-dasharray: none;
					"
				>
					<path
						id="path3262"
						d="M 382.59574,234.12869 C 374.42825,234.12869 367.79855,240.75838 367.79855,248.92588 C 367.79855,257.09337 374.42825,263.72306 382.59574,263.72306 C 390.76323,263.72306 397.39293,257.09337 397.39293,248.92588 C 397.39293,240.75838 390.76324,234.12869 382.59574,234.12869 z"
						style="
							fill: none;
							fill-opacity: 1;
							fill-rule: evenodd;
							stroke: #fff;
							stroke-width: 2;
							stroke-linecap: butt;
							stroke-linejoin: round;
							stroke-miterlimit: 4;
							stroke-dasharray: none;
							stroke-opacity: 1;
						"
					/>
				</g>
				<g
					id="g3733"
					transform="matrix(0,-1,1,0,495.9216,484.60657)"
					style="
						stroke-width: 0;
						stroke-miterlimit: 4;
						stroke-dasharray: none;
					"
				>
					<path
						id="path3304"
						d="M 105.0222,232.94824 C 96.83338,232.94824 90.18636,239.59526 90.18636,247.78408 C 90.18636,255.9729 96.83338,262.61991 105.0222,262.61992 C 113.21102,262.61992 119.85804,255.9729 119.85804,247.78408 C 119.85804,239.59526 113.21103,232.94824 105.0222,232.94824 z"
						style="
							fill: none;
							fill-opacity: 1;
							fill-rule: evenodd;
							stroke: #fff;
							stroke-width: 2;
							stroke-linecap: butt;
							stroke-linejoin: round;
							stroke-miterlimit: 4;
							stroke-dasharray: none;
							stroke-opacity: 1;
						"
					/>
				</g>
				<g
					id="g3727"
					transform="matrix(0,-1,1,0,549.12037,559.45875)"
					style="
						stroke-width: 0;
						stroke-miterlimit: 4;
						stroke-dasharray: none;
					"
				>
					<path
						id="path3300"
						d="M 148.1404,230.18175 C 139.95154,230.18175 133.30451,236.82878 133.30451,245.01764 C 133.30451,253.20649 139.95154,259.85352 148.1404,259.85353 C 156.32925,259.85353 162.97629,253.20649 162.97629,245.01764 C 162.97629,236.82878 156.32926,230.18175 148.1404,230.18175 z"
						style="
							fill: none;
							fill-opacity: 1;
							fill-rule: evenodd;
							stroke: #fff;
							stroke-width: 2;
							stroke-linecap: butt;
							stroke-linejoin: round;
							stroke-miterlimit: 4;
							stroke-dasharray: none;
							stroke-opacity: 1;
						"
					/>
				</g>
				<g
					id="g3721"
					transform="matrix(0,-1,1,0,546.03896,536.40307)"
					style="
						stroke-width: 0;
						stroke-miterlimit: 4;
						stroke-dasharray: none;
					"
				>
					<path
						id="path3296"
						d="M 184.48118,235.28245 C 176.29232,235.28245 169.64529,241.92948 169.64529,250.11834 C 169.64529,258.30719 176.29232,264.95423 184.48118,264.95423 C 192.67003,264.95423 199.31707,258.30719 199.31707,250.11834 C 199.31707,241.92948 192.67004,235.28245 184.48118,235.28245 z"
						style="
							fill: none;
							fill-opacity: 1;
							fill-rule: evenodd;
							stroke: #fff;
							stroke-width: 2;
							stroke-linecap: butt;
							stroke-linejoin: round;
							stroke-miterlimit: 4;
							stroke-dasharray: none;
							stroke-opacity: 1;
						"
					/>
				</g>
				<g
					id="g3715"
					transform="matrix(0,-1,1,0,574.0679,588.51911)"
					style="
						stroke-width: 0;
						stroke-miterlimit: 4;
						stroke-dasharray: none;
					"
				>
					<path
						id="path3292"
						d="M 220.9528,232.69169 C 212.76394,232.69169 206.11691,239.33873 206.11691,247.52758 C 206.11691,255.71644 212.76395,262.36347 220.9528,262.36347 C 229.14166,262.36347 235.78869,255.71643 235.78869,247.52758 C 235.78869,239.33873 229.14166,232.69169 220.9528,232.69169 z"
						style="
							fill: none;
							fill-opacity: 1;
							fill-rule: evenodd;
							stroke: #fff;
							stroke-width: 2;
							stroke-linecap: butt;
							stroke-linejoin: round;
							stroke-miterlimit: 4;
							stroke-dasharray: none;
							stroke-opacity: 1;
						"
					/>
				</g>
				<g
					id="g3709"
					transform="matrix(0,-1,1,0,595.85684,699.79123)"
					style="
						stroke-width: 0;
						stroke-miterlimit: 4;
						stroke-dasharray: none;
					"
				>
					<path
						id="path3308"
						d="M 256.83604,233.8064 C 248.66855,233.8064 242.03885,240.43609 242.03885,248.60358 C 242.03885,256.77108 248.66855,263.40077 256.83604,263.40077 C 265.00354,263.40077 271.63323,256.77108 271.63323,248.60358 C 271.63323,240.43609 265.00354,233.8064 256.83604,233.8064 z"
						style="
							opacity: 1;
							fill: none;
							fill-opacity: 1;
							fill-rule: evenodd;
							stroke: #fff;
							stroke-width: 2;
							stroke-linecap: butt;
							stroke-linejoin: round;
							stroke-miterlimit: 4;
							stroke-dasharray: none;
							stroke-opacity: 1;
						"
					/>
				</g>
				<g
					id="g3703"
					transform="matrix(0,-1,1,0,599.66459,674.44076)"
					style="
						stroke-width: 0;
						stroke-miterlimit: 4;
						stroke-dasharray: none;
					"
				>
					<path
						id="path3288"
						d="M 290.93348,232.19763 C 282.74462,232.19763 276.09759,238.84466 276.09759,247.03352 C 276.09759,255.22237 282.74463,261.8694 290.93348,261.86941 C 299.12233,261.86941 305.76937,255.22237 305.76937,247.03352 C 305.76937,238.84466 299.12234,232.19763 290.93348,232.19763 z"
						style="
							fill: none;
							fill-opacity: 1;
							fill-rule: evenodd;
							stroke: #fff;
							stroke-width: 2;
							stroke-linecap: butt;
							stroke-linejoin: round;
							stroke-miterlimit: 4;
							stroke-dasharray: none;
							stroke-opacity: 1;
						"
					/>
				</g>
				<g
					id="g3697"
					transform="matrix(0,-1,1,0,600.57398,658.42745)"
					style="
						stroke-width: 0;
						stroke-miterlimit: 4;
						stroke-dasharray: none;
					"
				>
					<path
						id="path3284"
						d="M 334.8269,233.00453 C 326.63805,233.00453 319.99101,239.65156 319.99101,247.84042 C 319.99101,256.02927 326.63805,262.6763 334.8269,262.67631 C 343.01576,262.67631 349.66279,256.02927 349.66279,247.84042 C 349.66279,239.65156 343.01576,233.00453 334.8269,233.00453 z"
						style="
							fill: none;
							fill-opacity: 1;
							fill-rule: evenodd;
							stroke: #fff;
							stroke-width: 2;
							stroke-linecap: butt;
							stroke-linejoin: round;
							stroke-miterlimit: 4;
							stroke-dasharray: none;
							stroke-opacity: 1;
						"
					/>
				</g>
				<g
					id="g3111"
					transform="matrix(0,-0.2256179,0.2257635,0,733.32746,523.71832)"
					style="
						stroke-width: 0;
						stroke-miterlimit: 4;
						stroke-dasharray: none;
					"
				>
					<path
						transform="translate(420,-11.42857)"
						sodipodi:type="arc"
						style="
							opacity: 1;
							fill: none;
							fill-opacity: 1;
							fill-rule: evenodd;
							stroke: #fff;
							stroke-width: 10;
							stroke-linecap: butt;
							stroke-linejoin: round;
							stroke-miterlimit: 4;
							stroke-dasharray: none;
							stroke-opacity: 1;
						"
						id="path2126"
						sodipodi:cx="148.57143"
						sodipodi:cy="169.50504"
						sodipodi:rx="65.714287"
						sodipodi:ry="65.714287"
						d="M 214.28571,169.50504 A 65.714287,65.714287 0 1 1 82.85714,169.50504 A 65.714287,65.714287 0 1 1 214.28571,169.50504 z"
					/>
					<path
						id="path2889"
						d="M 510.12704,127.06245 L 626.29458,127.06245"
						style="
							fill: none;
							fill-opacity: 0.75;
							fill-rule: evenodd;
							stroke: #222222;
							stroke-width: 0;
							stroke-linecap: butt;
							stroke-linejoin: miter;
							stroke-miterlimit: 4;
							stroke-dasharray: none;
							stroke-opacity: 1;
						"
					/>
					<path
						id="path2893"
						d="M 510.12704,190.19684 L 626.29458,190.19684"
						style="
							fill: none;
							fill-opacity: 0.75;
							fill-rule: evenodd;
							stroke: #222222;
							stroke-width: 0;
							stroke-linecap: butt;
							stroke-linejoin: miter;
							stroke-miterlimit: 4;
							stroke-dasharray: none;
							stroke-opacity: 1;
						"
					/>
				</g>
				<g
					id="g3119"
					transform="matrix(0,-0.2249425,0.2257683,0,697.05852,461.59063)"
					style="
						stroke-width: 0px;
						stroke-miterlimit: 4;
						stroke-dasharray: none;
					"
				>
					<path
						transform="translate(276.7028,153.52701)"
						sodipodi:type="arc"
						style="
							opacity: 1;
							fill: none;
							fill-opacity: 1;
							fill-rule: evenodd;
							stroke: #fff;
							stroke-width: 10px;
							stroke-linecap: butt;
							stroke-linejoin: round;
							stroke-miterlimit: 4;
							stroke-dasharray: none;
							stroke-opacity: 1;
						"
						id="path2901"
						sodipodi:cx="148.57143"
						sodipodi:cy="169.50504"
						sodipodi:rx="65.714287"
						sodipodi:ry="65.714287"
						d="M 214.28571,169.50504 A 65.714287,65.714287 0 1 1 82.85714,169.50504 A 65.714287,65.714287 0 1 1 214.28571,169.50504 z"
					/>

					<path
						id="path2905"
						d="M 366.82984,355.15242 L 482.99738,355.15242"
						style="
							fill: none;
							fill-opacity: 0.75;
							fill-rule: evenodd;
							stroke: #222222;
							stroke-width: 0;
							stroke-linecap: butt;
							stroke-linejoin: miter;
							stroke-miterlimit: 4;
							stroke-dasharray: none;
							stroke-opacity: 1;
						"
					/>
				</g>
				<path
					style="
						fill: none;
						fill-opacity: 0.75;
						fill-rule: evenodd;
						stroke: #222222;
						stroke-width: 0;
						stroke-linecap: butt;
						stroke-linejoin: miter;
						stroke-miterlimit: 4;
						stroke-dasharray: none;
						stroke-opacity: 1;
					"
					d="M 816.54655,444.79114 L 816.54655,418.63343"
					id="path2909"
				/>
				<path
					style="
						fill: none;
						fill-opacity: 0.75;
						fill-rule: evenodd;
						stroke: #222222;
						stroke-width: 0;
						stroke-linecap: butt;
						stroke-linejoin: miter;
						stroke-miterlimit: 4;
						stroke-dasharray: none;
						stroke-opacity: 1;
					"
					d="M 830.8003,444.79114 L 830.8003,418.63343"
					id="path2911"
				/>
				<g id="g4605" transform="translate(-4.125,-4.5)">
					<path
						transform="matrix(0,-0.2251723,0.2257683,0,785.27967,465.08526)"
						sodipodi:type="arc"
						style="
							fill: none;
							fill-opacity: 1;
							fill-rule: evenodd;
							stroke: #fff;
							stroke-width: 10px;
							stroke-linecap: butt;
							stroke-linejoin: round;
							stroke-miterlimit: 4;
							stroke-dasharray: none;
							stroke-opacity: 1;
						"
						id="path2907"
						sodipodi:cx="148.57143"
						sodipodi:cy="169.50504"
						sodipodi:rx="65.714287"
						sodipodi:ry="65.714287"
						d="M 214.28571,169.50504 A 65.714287,65.714287 0 1 1 82.85714,169.50504 A 65.714287,65.714287 0 1 1 214.28571,169.50504 z"
					/>
				</g>
				<g
					id="g3135"
					transform="matrix(0,-0.2252384,0.2257683,0,711.3276,494.02325)"
					style="
						stroke-width: 0;
						stroke-miterlimit: 4;
						stroke-dasharray: none;
					"
				>
					<path
						transform="translate(279.73325,314.14127)"
						sodipodi:type="arc"
						style="
							opacity: 1;
							fill: none;
							fill-opacity: 1;
							fill-rule: evenodd;
							stroke: #fff;
							stroke-width: 10;
							stroke-linecap: butt;
							stroke-linejoin: round;
							stroke-miterlimit: 4;
							stroke-dasharray: none;
							stroke-opacity: 1;
						"
						id="path2913"
						sodipodi:cx="148.57143"
						sodipodi:cy="169.50504"
						sodipodi:rx="65.714287"
						sodipodi:ry="65.714287"
						d="M 214.28571,169.50504 A 65.714287,65.714287 0 1 1 82.85714,169.50504 A 65.714287,65.714287 0 1 1 214.28571,169.50504 z"
					/>
					<path
						id="path2915"
						d="M 369.86029,452.63229 L 486.02783,452.63229"
						style="
							fill: none;
							fill-opacity: 0.75;
							fill-rule: evenodd;
							stroke: #222222;
							stroke-width: 0;
							stroke-linecap: butt;
							stroke-linejoin: miter;
							stroke-miterlimit: 4;
							stroke-dasharray: none;
							stroke-opacity: 1;
						"
					/>
					<path
						id="path2917"
						d="M 369.86029,515.76668 L 486.02783,515.76668"
						style="
							fill: none;
							fill-opacity: 0.75;
							fill-rule: evenodd;
							stroke: #222222;
							stroke-width: 0;
							stroke-linecap: butt;
							stroke-linejoin: miter;
							stroke-miterlimit: 4;
							stroke-dasharray: none;
							stroke-opacity: 1;
						"
					/>
				</g>
				<g
					id="g3143"
					transform="matrix(0,-0.225295,0.2257683,0,714.689,477.45796)"
					style="
						stroke-width: 0;
						stroke-miterlimit: 4;
						stroke-dasharray: none;
					"
				>
					<path
						transform="translate(471.66224,307.07019)"
						sodipodi:type="arc"
						style="
							opacity: 1;
							fill: none;
							fill-opacity: 1;
							fill-rule: evenodd;
							stroke: #fff;
							stroke-width: 10;
							stroke-linecap: butt;
							stroke-linejoin: round;
							stroke-miterlimit: 4;
							stroke-dasharray: none;
							stroke-opacity: 1;
						"
						id="path2919"
						sodipodi:cx="148.57143"
						sodipodi:cy="169.50504"
						sodipodi:rx="65.714287"
						sodipodi:ry="65.714287"
						d="M 214.28571,169.50504 A 65.714287,65.714287 0 1 1 82.85714,169.50504 A 65.714287,65.714287 0 1 1 214.28571,169.50504 z"
					/>
				</g>
				<g
					id="g3151"
					transform="matrix(0,-0.2256226,0.2257683,0,697.54067,524.48455)"
					style="
						stroke-width: 0;
						stroke-miterlimit: 4;
						stroke-dasharray: none;
					"
				>
					<path
						transform="translate(344.28572,487.14286)"
						sodipodi:type="arc"
						style="
							opacity: 1;
							fill: none;
							fill-opacity: 1;
							fill-rule: evenodd;
							stroke: #fff;
							stroke-width: 10;
							stroke-linecap: butt;
							stroke-linejoin: round;
							stroke-miterlimit: 4;
							stroke-dasharray: none;
							stroke-opacity: 1;
						"
						id="path3386"
						sodipodi:cx="148.57143"
						sodipodi:cy="169.50504"
						sodipodi:rx="65.714287"
						sodipodi:ry="65.714287"
						d="M 214.28571,169.50504 A 65.714287,65.714287 0 1 1 82.85714,169.50504 A 65.714287,65.714287 0 1 1 214.28571,169.50504 z"
					/>
				</g>
				<g
					id="g3157"
					transform="matrix(0,-0.2246617,0.2257683,0,701.80543,500.11718)"
					style="
						stroke-width: 0;
						stroke-miterlimit: 4;
						stroke-dasharray: none;
					"
				>
					<path
						transform="translate(504.89064,476.39946)"
						sodipodi:type="arc"
						style="
							opacity: 1;
							fill: none;
							fill-opacity: 1;
							fill-rule: evenodd;
							stroke: #fff;
							stroke-width: 10;
							stroke-linecap: butt;
							stroke-linejoin: round;
							stroke-miterlimit: 4;
							stroke-dasharray: none;
							stroke-opacity: 1;
						"
						id="path2925"
						sodipodi:cx="148.57143"
						sodipodi:cy="169.50504"
						sodipodi:rx="65.714287"
						sodipodi:ry="65.714287"
						d="M 214.28571,169.50504 A 65.714287,65.714287 0 1 1 82.85714,169.50504 A 65.714287,65.714287 0 1 1 214.28571,169.50504 z"
					/>
					<path
						id="path2927"
						d="M 595.01768,614.89048 L 711.18522,614.89048"
						style="
							fill: none;
							fill-opacity: 0.75;
							fill-rule: evenodd;
							stroke: #222222;
							stroke-width: 0;
							stroke-linecap: butt;
							stroke-linejoin: miter;
							stroke-miterlimit: 4;
							stroke-dasharray: none;
							stroke-opacity: 1;
						"
					/>
					<path
						id="path2929"
						d="M 595.01768,678.02487 L 711.18522,678.02487"
						style="
							fill: none;
							fill-opacity: 0.75;
							fill-rule: evenodd;
							stroke: #222222;
							stroke-width: 0;
							stroke-linecap: butt;
							stroke-linejoin: miter;
							stroke-miterlimit: 4;
							stroke-dasharray: none;
							stroke-opacity: 1;
						"
					/>
				</g>
			</g>
		</g>
	</g>
</svg>
